<svg xmlns="http://www.w3.org/2000/svg" version="1.1" xmlns:xlink="http://www.w3.org/1999/xlink" xmlns:svgjs="http://svgjs.dev/svgjs" width="100%" height="100%" viewBox="0 0 1000 600"><rect width="1000" height="600" x="0" y="0" fill="#ffffff"/><g><rect width="333.3333333333333" height="333.3333333333333" rx="13.333333333333334" ry="13.333333333333334" y="204.3398621293232" fill=" #4a4b68" transform="matrix(0.6863695541480114,0,0,0.6863695541480113,0,45.35242252097201)" x="182.11764526367188"/><path d="M287.4471587435416 416.9972353629379L287.4471587435416 319.99745503943046Q284.468527305036 315.2381200235574 281.29563729445397 312.38899429976954Q278.09037085519253 309.5398685759816 274.91748084461057 308.0505528567288Q271.71221440534913 306.5936135661554 266.3701036732467 304.74815713142914L266.3701036732467 304.74815713142914Q261.25462794190025 303.0645828400999 258.4055022181123 301.8990314076412L258.4055022181123 301.8990314076412L258.4055022181123 296.00652138798887L298.13138020774636 296.00652138798887L405.2326062792291 406.73390747156543L405.2326062792291 335.14962366139355Q405.2326062792291 324.3358964824712 402.15684555468533 315.4647550243133L402.15684555468533 315.4647550243133Q400.9265412648678 311.80621858354016 398.7573205433475 309.7665035767374Q396.5880998218271 307.7267885699347 394.0951148135126 306.82024856691123Q391.5697533765188 305.91370856388784 387.36081764819573 304.8776628461468L387.36081764819573 304.8776628461468Q386.6809126459282 304.6510278453909 383.896539779499 303.9063699857645Q381.1121669130699 303.1617121261381 378.84581690551136 302.02853712235884L378.84581690551136 302.02853712235884Q378.84581690551136 299.08228211253265 379.1695811923054 296.00652138798887L379.1695811923054 296.00652138798887L439.1631035352491 296.00652138798887L439.1631035352491 302.125666408397Q435.95783709598766 303.61498212764985 432.55831208464974 304.974792132185L432.55831208464974 304.974792132185Q424.23756991404184 308.63332857295813 421.0646799034598 311.02918429523436Q417.8594134641984 313.4250400175105 416.56435631702203 318.4757628914983Q415.2692991698457 323.526485765486 415.13979345512803 335.0524943753553L415.13979345512803 335.0524943753553Q415.13979345512803 340.84787510896945 414.91315845437225 352.2120015754418L414.91315845437225 352.2120015754418Q414.816029168334 360.8888844615232 414.68652345361636 373.80707950460715Q414.5893941675781 386.7252745476911 414.5893941675781 404.01428746249513L414.5893941675781 404.01428746249513Q414.5893941675781 411.5256189161178 415.94920417211324 426.3216468226075L415.94920417211324 426.3216468226075Q417.0823791758926 438.8513247215385 417.1795084619308 445.22948117138196L417.1795084619308 445.22948117138196Q415.0426641690899 446.00651545968776 411.6107627290726 446.00651545968776L411.6107627290726 446.00651545968776Q407.9846027169789 446.00651545968776 405.1354769931909 445.22948117138196L405.1354769931909 445.22948117138196Q396.9442405373006 435.19278828076534 386.4542776451723 423.92579110033125L386.4542776451723 423.92579110033125L296.54493520245535 329.35424292777947L296.54493520245535 409.25926890855925Q296.54493520245535 416.86772964822023 298.4875209232198 424.6056961025988L298.4875209232198 424.6056961025988Q299.39406092624324 428.4908675441278 301.78991664851947 430.5953354082894Q304.1533959421163 432.69980327245094 306.9377688085454 433.6063432754743Q309.75451810365394 434.5128832784978 314.51385311952697 435.4194232815212L314.51385311952697 435.4194232815212Q321.11864457012626 436.4554689992623 324.32391100938764 438.17141971927094L324.32391100938764 438.17141971927094Q324.32391100938764 441.1176747290971 323.9677702939142 444.19343545364086L323.9677702939142 444.19343545364086L259.7653122226474 444.19343545364086Q259.5386772218916 442.1537204468382 259.5386772218916 438.0419140045533L259.5386772218916 438.0419140045533L264.7836586679557 436.6821040000181Q272.0683551208226 434.86902399397127 276.3420437065045 433.1530732739626Q280.6157322921864 431.43712255395394 283.7238694454096 427.58432754110436Q286.8643830273122 423.69915609957536 287.4471587435416 416.9972353629379L287.4471587435416 416.9972353629379Z " fill="#ffffff" transform="matrix(0.6863695541480114,0,0,0.6863695541480113,0,45.35242252097201)"/><path d="M626.198726080727 418.19477885576185L626.198726080727 326.6299900957809Q623.3869902443057 322.1373252267164 620.3918803315961 319.44783877448737Q617.3662080728384 316.75835232225825 614.3710981601287 315.35248440404763Q611.3454259013711 313.977178831885 606.3026388034415 312.23512510714573L606.3026388034415 312.23512510714573Q601.4737881278484 310.64588311264674 598.7843016756193 309.5456386549166L598.7843016756193 309.5456386549166L598.7843016756193 303.9832916741701L636.2843002765861 303.9832916741701L737.3845410035611 408.5065151585276L737.3845410035611 340.93316804627193Q737.3845410035611 330.72534446622063 734.4811181289956 322.35126164905284L734.4811181289956 322.35126164905284Q733.3197489791694 318.8977165456223 731.2720717939495 316.97228874459466Q729.2243946087297 315.046860943567 726.8710939630292 314.1911152542214Q724.4872309712807 313.3353695648758 720.5141259850333 312.3573744913379L720.5141259850333 312.3573744913379Q719.872316718024 312.14343806900155 717.243954957891 311.4405041098962Q714.6155931977581 310.7375701507909 712.4762289743941 309.6678880391089L712.4762289743941 309.6678880391089Q712.4762289743941 306.88671454873565 712.7818524348746 303.9832916741701L712.7818524348746 303.9832916741701L769.4138796619255 303.9832916741701L769.4138796619255 309.75957507725303Q766.3882074031678 311.1654429954637 763.1791610681217 312.4490615294821L763.1791610681217 312.4490615294821Q755.3246381337709 315.90260663291264 752.3295282210613 318.1642202404689Q749.3038559623036 320.4258338480252 748.0813621203813 325.19355983152224Q746.858868278459 329.9612858150192 746.7366188942667 340.84148100812774L746.7366188942667 340.84148100812774Q746.7366188942667 346.31214095073005 746.5226824719304 357.0395244135983L746.5226824719304 357.0395244135983Q746.4309954337862 365.2302331544778 746.3087460495939 377.42460922765287Q746.2170590114498 389.6189853008279 746.2170590114498 405.9392780904907L746.2170590114498 405.9392780904907Q746.2170590114498 413.02974237364003 747.5006775454682 426.9967345176025L747.5006775454682 426.9967345176025Q748.5703596571502 438.8243624382008 748.6620466952944 444.8451446096682L748.6620466952944 444.8451446096682Q746.6449318561225 445.57864091482156 743.4053231750285 445.57864091482156L743.4053231750285 445.57864091482156Q739.982340417646 445.57864091482156 737.2928539654168 444.8451446096682L737.2928539654168 444.8451446096682Q729.5605804152583 435.3708173347703 719.6583802956876 424.7351209100462L719.6583802956876 424.7351209100462L634.7867453202314 335.4625081036696L634.7867453202314 410.89037815027604Q634.7867453202314 418.0725294715696 636.6204860831148 425.37693017705544L636.6204860831148 425.37693017705544Q637.4762317724603 429.04441170282234 639.7378453800167 431.0309641959461Q641.9688966415249 433.01751668906985 644.5972584016579 433.87326237841546Q647.2561825078388 434.7290080677611 651.7488473769033 435.5847537571067L651.7488473769033 435.5847537571067Q657.9835659707071 436.5627488306445 661.0092382294648 438.18255317119156L661.0092382294648 438.18255317119156Q661.0092382294648 440.9637266615648 660.6730524229362 443.86714953613034L660.6730524229362 443.86714953613034L600.0679202096378 443.86714953613034Q599.8539837873013 441.9417217351027 599.8539837873013 438.0603037869994L599.8539837873013 438.0603037869994L604.8050838470867 436.77668525298094Q611.6816117078997 435.06519387428966 615.7158413862433 433.4453895337426Q619.7500710645869 431.8255851931956 622.6840562852004 428.1886660134767Q625.648603851862 424.5211844877098 626.198726080727 418.19477885576185L626.198726080727 418.19477885576185ZM808.1974967969109 296.00651935562706Q813.3625332790325 296.00651935562706 816.9994524587515 299.674000881394Q820.6669339845183 303.3414824071609 820.6669339845183 308.47595654323464L820.6669339845183 308.47595654323464Q820.6669339845183 313.7632424095486 816.9994524587515 317.33903689717135Q813.3625332790325 320.94539373084217 808.1974967969109 320.94539373084217L808.1974967969109 320.94539373084217Q802.9407732766449 320.94539373084217 799.3344164429741 317.33903689717135Q795.7280596093033 313.7632424095486 795.7280596093033 308.47595654323464L795.7280596093033 308.47595654323464Q795.7280596093033 303.3414824071609 799.3344164429741 299.674000881394Q802.9407732766449 296.00651935562706 808.1974967969109 296.00651935562706L808.1974967969109 296.00651935562706ZM799.6094775574065 365.7497930372948Q798.203609639196 363.2742430074021 794.3833163831888 361.2876905142784Q790.5630231271815 359.3011380211546 786.559355794886 357.95639479504007Q782.5251261165423 356.61165156892554 782.5251261165423 356.73390095311777L782.5251261165423 356.73390095311777L782.7390625388788 352.9747323892067L812.9346604343598 345.67033168372086L819.5972518728363 345.242458839048L819.5972518728363 420.24245604098166Q819.5972518728363 424.0016246048928 820.3918728700859 427.3329203241311Q821.1864938673353 430.6642160433694 825.3429729298712 434.0871988007518Q829.468889646359 437.54074390418236 838.3930946923919 438.48817663167216L838.3930946923919 438.48817663167216Q838.3930946923919 442.03340877324683 838.2708453081996 443.86714953613034L838.2708453081996 443.86714953613034L782.1889403100137 443.86714953613034Q781.9750038876773 441.9417217351027 781.9750038876773 438.48817663167216L781.9750038876773 438.48817663167216L785.000676146435 437.63243094232655Q789.7072774378358 436.34881240830816 792.6107003124014 435.06519387428966Q795.5141231869669 433.7815753402713 797.5618003721867 431.2449006182825Q799.6094775574065 428.7082258962937 799.6094775574065 424.4294974495656L799.6094775574065 424.4294974495656L799.6094775574065 365.7497930372948ZM881.913875464826 420.0285196186453Q881.913875464826 429.2583481251587 886.589914410179 433.38426484164654Q891.2659533555317 437.54074390418236 900.8014053225257 438.48817663167216L900.8014053225257 438.48817663167216Q900.8014053225257 440.10798097221925 900.7097182843817 441.7277853127663Q900.5874689001893 443.3170273072653 900.5874689001893 443.86714953613034L900.5874689001893 443.86714953613034L845.2696225532048 443.86714953613034L845.1473731690127 440.4136044326998Q845.1473731690127 438.7021130540086 845.2696225532048 438.0603037869994L845.2696225532048 438.0603037869994Q851.5043411470086 436.5627488306445 854.6828251360066 435.3708173347703Q857.8307467789565 434.2094481849441 859.8784239641765 431.51996173271505Q861.9261011493962 428.8304752804859 861.9261011493962 424.0016246048928L861.9261011493962 424.0016246048928L861.9261011493962 365.7497930372948Q860.6424826153778 363.2742430074021 856.8833140514668 361.2876905142784Q853.1241454875557 359.3011380211546 848.9676664250198 357.95639479504007Q844.841749708532 356.61165156892554 844.841749708532 356.73390095311777L844.841749708532 356.73390095311777L845.1473731690127 353.06641942735087L874.487225375148 345.76201872186505L881.0581297754804 345.3341458771922L882.2194989253065 362.75468312458514Q888.1485940586298 354.80847315209013 897.3172978730471 349.5823119778722Q906.5165640335125 344.3867131497025 917.1522604582366 344.3867131497025L917.1522604582366 344.3867131497025Q932.7390569427461 344.3867131497025 941.3270761822503 353.18866881154304Q949.9150954217545 361.9906244733837 950.6791540729558 379.5028487589208L950.6791540729558 379.5028487589208Q950.9847775334364 386.37937661973376 950.9847775334364 393.5920902870754L950.9847775334364 393.5920902870754L950.9847775334364 417.5529695887526Q950.9847775334364 425.37693017705544 951.9627726069745 428.9221623186301Q952.9407676805122 432.4673944602048 955.0190072117801 433.8121376863194Q957.1278090890961 435.15688091243385 962.0483468028334 436.6544358687887L962.0483468028334 436.6544358687887L966.571574017946 438.0603037869994Q966.6938234021382 438.7021130540086 966.6938234021382 440.4136044326998L966.6938234021382 440.4136044326998L966.571574017946 443.86714953613034L913.607028316662 443.86714953613034Q913.607028316662 443.22534026912115 913.4847789324696 441.6666606206702Q913.3930918943255 440.10798097221925 913.3930918943255 438.48817663167216L913.3930918943255 438.48817663167216Q914.1265881994788 438.18255317119156 917.6718203410536 437.2045580976537L917.6718203410536 437.2045580976537Q923.3869790520404 435.5847537571067 926.5349006949903 433.7815753402713Q929.7133846839884 431.9478345773878 930.3551939509975 427.8524802069481L930.3551939509975 427.8524802069481Q930.9053161798626 424.7351209100462 930.9053161798626 419.5700844279244L930.9053161798626 419.5700844279244L930.9053161798626 395.60920512624716Q930.9053161798626 381.3365895218042 929.8661964142286 373.60431597164563Q928.8576389946427 365.87204242148704 924.5177858558185 360.9209423617017Q920.1473703709463 355.9698423019163 910.48966901976 355.9698423019163L910.48966901976 355.9698423019163Q902.8490825077456 355.9698423019163 895.8197429166923 360.3708201328366Q888.790403325639 364.77179796375697 881.913875464826 372.1067610152908L881.913875464826 372.1067610152908L881.913875464826 420.0285196186453ZM1028.4603247652626 344.3867131497025Q1042.763502715754 344.3867131497025 1054.5300059442561 350.5603070514101Q1066.2965091727583 356.73390095311777 1073.1730370335713 368.16421837509137Q1080.0495648943843 379.625098143113 1080.0495648943843 394.75345943690155L1080.0495648943843 394.75345943690155Q1080.0495648943843 409.9123830767382 1073.1730370335713 421.58719926709625Q1066.2965091727583 433.23145311140627 1054.7745047126405 439.61898343545033Q1043.2830625985707 446.0065137594944 1029.6522562611372 446.0065137594944L1029.6522562611372 446.0065137594944Q1016.1131369618475 446.0065137594944 1004.2855090412492 439.46617170521006Q992.4578811206508 432.8952673048776 985.3674168375013 421.2510134605676Q978.2769525543521 409.6067596162576 978.2769525543521 394.8757088210938L978.2769525543521 394.8757088210938Q978.2769525543521 380.14465802592997 985.1534804151651 368.59209121976414Q992.030008275978 357.0395244135983 1003.5825750821438 350.7131187816504Q1015.1351418883097 344.3867131497025 1028.4603247652626 344.3867131497025L1028.4603247652626 344.3867131497025ZM1031.0275618332998 437.63243094232655Q1044.6889305167815 437.63243094232655 1051.7793947999307 427.8524802069481Q1058.8698590830804 418.0725294715696 1058.8698590830804 402.1801095265796L1058.8698590830804 402.1801095265796Q1058.8698590830804 388.42705380495363 1055.049565827073 376.8744869987878Q1051.2292725710658 365.321920192622 1044.1388082879166 358.445392331809Q1037.048344004767 351.568864470996 1027.8185154982534 351.568864470996L1027.8185154982534 351.568864470996Q1019.6583691034222 351.568864470996 1013.3625258175223 355.5419694572435Q1007.0666825316224 359.515074443491 1003.4297633519035 367.7974702225147Q999.7622818261367 376.07986600153833 999.7622818261367 388.5187408430978L999.7622818261367 388.5187408430978Q999.7622818261367 400.7742416083689 1003.64369977424 412.11287199219834Q1007.5251177223432 423.45150237602775 1014.6155820054927 430.54196665917715Q1021.7060462886421 437.63243094232655 1031.0275618332998 437.63243094232655L1031.0275618332998 437.63243094232655ZM1130.8441840262562 418.62265170043463Q1130.8441840262562 426.782798095266 1133.4419834403411 430.8170277736097Q1136.009220508378 434.8512574519533 1139.3405162276163 436.0126266017795Q1142.6718119468546 437.2045580976537 1149.7622762300039 438.48817663167216L1149.7622762300039 438.48817663167216Q1149.7622762300039 440.10798097221925 1149.6705891918596 441.7277853127663Q1149.5483398076676 443.3170273072653 1149.5483398076676 443.86714953613034L1149.5483398076676 443.86714953613034L1094.1082440764908 443.86714953613034L1094.1082440764908 438.18255317119156Q1094.322180498827 438.0603037869994 1097.1339163352486 437.326807481846L1097.1339163352486 437.326807481846Q1102.4823268936584 436.0126266017795 1105.9358719970892 434.24001053099215Q1109.3588547544716 432.4673944602048 1110.122913405673 428.8304752804859L1110.122913405673 428.8304752804859Q1110.673035634538 426.9967345176025 1110.7647226726822 425.132431408671Q1110.8869720568746 423.2375659536914 1110.8869720568746 420.0285196186453L1110.8869720568746 420.0285196186453L1110.8869720568746 365.87204242148704Q1109.572791176808 363.2742430074021 1105.7830602668487 361.2876905142784Q1101.9627670108416 359.3011380211546 1097.8674126404019 357.95639479504007Q1093.8026206160102 356.61165156892554 1093.8026206160102 356.73390095311777L1093.8026206160102 356.73390095311777L1094.1082440764908 353.06641942735087L1123.6620327049627 345.76201872186505L1129.9884383369103 345.3341458771922L1131.180369832785 362.8463701627293Q1137.5067754647328 354.5945367297537 1146.125357050285 349.4906249397281Q1154.7133762897893 344.3867131497025 1165.3490727145133 344.3867131497025L1165.3490727145133 344.3867131497025Q1175.8625197550452 344.3867131497025 1182.7390476158582 348.6654415964305Q1189.6155754766712 352.9747323892067 1193.283057002438 361.6850010129031L1193.283057002438 361.6850010129031Q1198.4480934845596 355.9698423019163 1203.0630077378166 352.3634854682455Q1207.6779219910732 348.78769098062276 1213.362518356012 346.6788891033068Q1219.077677066999 344.60064957203883 1226.2598283882921 344.60064957203883L1226.2598283882921 344.60064957203883Q1240.3490699164472 344.60064957203883 1248.8759644638553 351.2021163184193Q1257.4334213573115 357.8035830647998 1258.6253528531856 371.2204529798971L1258.6253528531856 371.2204529798971Q1259.481098542531 381.3365895218042 1259.481098542531 391.5444131018555L1259.481098542531 391.5444131018555L1259.481098542531 419.69233381211666Q1259.481098542531 425.07130671657484 1260.2145948476846 428.8304752804859L1260.2145948476846 428.8304752804859Q1260.7647170765495 431.9478345773878 1262.96520599201 433.7815753402713Q1265.16569490747 435.5847537571067 1267.3050591308338 436.287687716212Q1269.4749857002462 436.99062167531736 1274.823396258656 438.48817663167216L1274.823396258656 438.48817663167216Q1274.823396258656 440.10798097221925 1274.7317092205121 441.6666606206702Q1274.6094598363197 443.22534026912115 1274.6094598363197 443.86714953613034L1274.6094598363197 443.86714953613034L1222.9285326690542 443.86714953613034Q1222.9285326690542 443.22534026912115 1222.83684563091 441.6666606206702Q1222.7145962467175 440.10798097221925 1222.7145962467175 438.48817663167216L1222.7145962467175 438.48817663167216Q1223.2647184755829 438.39648959352803 1223.9676524346883 438.18255317119156Q1224.6705863937937 437.9686167488552 1225.4040826989467 437.7546803265188L1225.4040826989467 437.7546803265188Q1230.9969920257413 436.2265630241159 1234.3282877449797 434.45394695332857Q1237.659583464218 432.68133088254126 1238.5153291535635 429.04441170282234L1238.5153291535635 429.04441170282234Q1239.3710748429094 424.7351209100462 1239.3710748429094 419.69233381211666L1239.3710748429094 419.69233381211666L1239.3710748429094 377.0272987290281Q1239.3710748429094 366.941724533169 1234.2060383607873 361.4099398984706Q1229.0715642247137 355.87815526377216 1219.5055499116716 355.87815526377216L1219.5055499116716 355.87815526377216Q1212.8429584731953 355.87815526377216 1206.2720540728628 359.7901355579235Q1199.7317120185785 363.70211585207494 1194.6889249206488 369.2950251788695L1194.6889249206488 369.2950251788695Q1195.330734187658 376.72167526854753 1195.330734187658 393.16421744240256L1195.330734187658 393.16421744240256L1195.330734187658 419.1422115832516Q1195.330734187658 425.28524313891126 1195.9725434546672 428.6165388581495L1195.9725434546672 428.6165388581495Q1196.6143527216764 432.4673944602048 1200.006773133011 434.3011352230883Q1203.3686311982972 436.1348759859717 1208.9615405250916 437.63243094232655L1208.9615405250916 437.63243094232655Q1211.9872127838494 438.6104260158644 1211.8649633996574 438.48817663167216L1211.8649633996574 438.48817663167216Q1211.8649633996574 440.10798097221925 1211.7732763615131 441.7277853127663Q1211.6510269773207 443.3170273072653 1211.6510269773207 443.86714953613034L1211.6510269773207 443.86714953613034L1157.9224226248352 443.86714953613034Q1157.9224226248352 443.22534026912115 1157.8307355866912 441.6666606206702Q1157.708486202499 440.10798097221925 1157.708486202499 438.48817663167216L1157.708486202499 438.48817663167216Q1158.1363590471717 438.39648959352803 1162.9346473767168 437.4796192120863Q1167.7023733602136 436.5627488306445 1171.461541924125 431.7644605010995Q1175.2207104880358 426.9967345176025 1175.2207104880358 419.2644609674439L1175.2207104880358 419.2644609674439L1175.2207104880358 381.8561494046212Q1175.2207104880358 369.2950251788695 1171.2476055017885 362.6324337403929Q1167.2745005155411 355.9698423019163 1157.4028627420184 355.9698423019163L1157.4028627420184 355.9698423019163Q1149.6705891918596 355.9698423019163 1143.37474590596 360.00407198025994Q1137.07890262006 364.0383016586036 1130.8441840262562 371.0065165575607L1130.8441840262562 371.0065165575607L1130.8441840262562 418.62265170043463Z " fill=" #4a4b68" transform="matrix(0.6863695541480114,0,0,0.6863695541480113,0,45.35242252097201)"/></g></svg>